Patient4_TMGait_0pt7_01_right_40_EMG.mot
version=1
nRows=13
nColumns=33
inDegrees=no
endheader
time	1LAddLong	2LGlutMax	3LGlutMed	4LIliopsoas	5LSemiMemb	6LBicFemLong	7LRecFem	8LVastMed	9LVastLat	10LGasMed	11LTibAnt	12lTibPost	13LPeroneusLong	14LSol	15LExtDigLong	16LFlexDigLong	17RAddLong	18RGlutMax	19RGlutMed	20RIliopsoas	21RSemiMemb	22RBicFemLong	23RRecFem	24RVastMed	25RVastLat	26RGasMed	27RTibAnt	28RTibPost	29RPeroneusLong	30RSol	31RExtDigLong	32RFlexDigLong
45.73	0.018921	-0.29739	0.041962	-0.00061	0.045319	0.26779	0.017395	-0.004578	0.01297	-0.32089	0.009766	0.002441	-0.13138	-0.079956	0.22415	-0.003967	0.019989	-0.03952	0.08728	-0.037079	-0.030365	0.12192	0.14511	0.070801	0.041809	0.000458	-0.62775	-0.008698	0.21729	-0.11826	0.001526	0.016632
45.731	-0.013275	-0.30899	0.015411	0.003815	0.043945	-0.10452	-0.010223	-0.002899	0.041504	-0.28397	0.043945	-0.001526	-0.34149	-0.3865	0.18158	-0.004272	0.008545	-0.058594	0.10086	0.13901	-0.036774	0.11917	0.24353	0.18219	0.054474	0.000916	-0.78339	-0.006409	0.17456	-0.13412	0.001678	0.017548
45.732	0.030975	-0.31403	-0.044861	0.011749	0.040131	0.016174	-0.007935	0.002747	0.005951	-0.16144	0.038452	-0.005951	-0.32562	-0.46143	-0.021362	-0.005341	-0.021973	-0.021973	0.17777	0.17471	-0.034485	0.13046	0.42099	0.25284	0.052795	-0.00061	-0.23453	-0.008698	-0.012207	-0.086517	-0.004425	0.005035
45.733	0.003204	-0.31265	-0.014954	0.005646	0.008698	0.20416	-0.07843	-0.001984	0.023499	-0.09964	0.032196	-0.002289	0.04364	-0.1004	0.068512	-0.011292	-0.028229	-0.042572	0.20447	0.084229	-0.025787	0.1268	0.46036	0.24612	0.002136	-0.001373	0.56427	-0.009918	-0.09964	-0.034332	0.000458	-0.012665
45.734	0.016327	-0.28275	0.026398	0.005188	-0.011292	0.15366	-0.08606	-0.003967	0.080719	-0.041656	0.062408	-0.008392	0.091705	0.043945	0.13534	0.00061	-0.04364	0.030212	0.015717	0.093994	-0.038605	0.12436	0.4451	0.16998	-0.007324	0.006104	0.61981	-0.002289	-0.093079	-0.02655	-0.001221	-0.046692
45.735	0.017548	-0.25772	-0.016937	0.014648	0.019226	0.02243	-0.066376	-0.003662	0.056305	0.053101	-0.005798	-0.010986	-0.25055	0.14435	0.049744	0.009003	-0.063171	-0.01297	0.059052	0.18005	-0.052185	0.1059	0.46753	0.18845	-0.031281	0.007782	0.36697	-0.007782	-0.094147	-0.021362	0.000153	-0.061646
45.736	0.011749	-0.25146	0.025177	0.002136	0.039673	0.17487	-0.026398	0.010681	0.046844	0.15503	-0.014801	-0.003052	-0.15427	0.14832	0.089722	0.009918	-0.057983	-0.055695	0.2002	0.15396	-0.066833	0.11398	0.59616	0.13367	-0.045776	-0.001221	-0.053253	0.000458	-0.059967	-0.027771	-0.000916	-0.068207
45.737	0.010529	-0.26245	0.005798	-0.010681	0.022278	-0.1506	0.014343	0.021667	0.021667	0.25909	-0.015106	0.006409	-0.25314	0.02182	0.19211	-0.001221	-0.025787	-0.103	0.33035	0.11658	-0.069275	0.096436	0.51621	0.09964	-0.042725	-0.012207	-0.1712	0.001831	-0.084686	0.005188	-0.000458	-0.063171
45.738	-0.005035	-0.24475	-0.079956	-0.005951	0.007629	-0.73914	0.033569	0.016174	0.010071	0.21744	-0.002594	0.009308	-0.24689	-0.14481	0.17181	-0.024872	-0.009003	-0.038605	0.15671	0.1474	-0.057678	0.098724	0.25207	0.083466	-0.011597	-0.002441	-0.33188	0.000763	-0.061951	0.066986	0.00061	-0.058899
45.739	0.004425	-0.24384	-0.21957	0.027008	0.020905	-0.51804	0.10941	0.020294	0.057831	-0.12848	-0.045624	0.007477	0.011749	-0.010681	-0.11017	-0.019989	-0.011597	-0.012207	-0.42252	0.16052	-0.050659	0.1062	0.097046	0.015106	-0.037079	0.014648	0.023499	0.00412	0.020599	0.10803	-0.000153	-0.049744
45.74	0.005493	-0.2243	-0.13855	0.009308	0.010223	-0.19287	0.09964	0.013123	0.080566	-0.031738	-0.10666	0.007324	0.16159	0.21713	-0.17227	-0.009918	0.000305	-0.077362	-0.70007	0.062714	-0.04715	0.10849	-0.11398	-0.061646	-0.033417	0.001221	-0.224	0.004272	0.087891	0.096436	0.000916	-0.037231
45.741	0.005188	-0.16129	0.17288	-0.000305	0.000458	-0.037079	0.033112	-0.006104	0.11002	0.023956	0.07782	0.002594	0.18509	0.3006	-0.059357	-0.012512	0.004883	-0.029907	-0.69138	-0.040131	-0.042114	0.11261	-0.26352	-0.12833	-0.04303	0.001831	-0.33432	0.002899	0.042114	0.031281	0.000153	-0.029907
45.742	0.00885	-0.11108	0.036621	-0.000763	-0.021057	0.23514	-0.032806	0.002594	0.093689	0.098724	0.22736	0.017242	0.031891	0.18326	-0.050507	-0.007324	0.009918	0	-0.62103	-0.13184	-0.047607	0.0737	-0.32867	-0.19699	-0.039825	-0.000458	0.027771	0.003662	0.035706	-0.015106	0.001221	-0.024109
